<svg width="31" height="31" viewBox="0 0 31 31" fill="none" xmlns="http://www.w3.org/2000/svg">
<g clip-path="url(#clip0_2142_190)">
<path d="M15.75 0.5C7.46572 0.5 0.75 7.21572 0.75 15.5C0.75 23.7843 7.46572 30.5 15.75 30.5C24.0343 30.5 30.75 23.7843 30.75 15.5C30.75 7.21572 24.0343 0.5 15.75 0.5ZM8.18958 6.83728L10.8593 7.6759C11.2127 7.79198 11.4481 8.12017 11.4891 8.45592L11.6393 9.92623L23.7279 11.2757C24.247 11.3763 24.6117 11.8449 24.5391 12.3267L23.7883 16.5564C23.6928 16.9988 23.3263 17.3021 22.9186 17.3071H12.1795L11.9689 18.5065H22.1679C22.7012 18.5253 23.0918 18.9314 23.098 19.4056C23.0759 19.9465 22.6399 20.3006 22.1679 20.3064H10.8885C10.3196 20.2594 9.902 19.8085 9.9895 19.2572L10.4692 16.6168L9.7185 9.23595L7.6494 8.5768C7.4094 8.4968 7.22925 8.34633 7.10925 8.12633C6.8822 7.65053 7.09428 7.12372 7.49928 6.89585C7.73043 6.7757 7.95618 6.76073 8.18958 6.83728ZM12.2545 20.8247C13.0312 20.8247 13.6608 21.4543 13.6608 22.2309C13.6608 23.0076 13.0312 23.6372 12.2545 23.6372C11.4779 23.6372 10.8483 23.0076 10.8483 22.2309C10.8483 21.4543 11.4779 20.8247 12.2545 20.8247ZM20.5089 20.8247C21.2855 20.8247 21.9152 21.4543 21.9152 22.2309C21.9152 23.0076 21.2855 23.6372 20.5089 23.6372C19.7323 23.6372 19.1027 23.0076 19.1027 22.2309C19.1027 21.4543 19.7323 20.8247 20.5089 20.8247Z" fill="white"/>
</g>
<defs>
<clipPath id="clip0_2142_190">
<rect width="30" height="30" fill="white" transform="translate(0.75 0.5)"/>
</clipPath>
</defs>
</svg>
