<svg width="20" height="20" viewBox="0 0 20 20" fill="none" xmlns="http://www.w3.org/2000/svg">
<path d="M14.608 12.1712C14.608 13.0112 14.847 13.3462 15.472 13.3462C16.865 13.3462 17.752 11.5712 17.752 8.61916C17.752 4.10716 14.464 1.94716 10.359 1.94716C6.13601 1.94716 2.29501 4.77916 2.29501 10.1312C2.29501 15.2432 5.65501 18.0272 10.815 18.0272C12.567 18.0272 13.743 17.8352 15.542 17.2352L15.928 18.8422C14.152 19.4192 12.254 19.5862 10.791 19.5862C4.02301 19.5862 0.39801 15.8662 0.39801 10.1302C0.39801 4.34616 4.59901 0.410156 10.383 0.410156C16.407 0.410156 19.598 4.01016 19.598 8.42616C19.598 12.1702 18.423 15.0262 14.727 15.0262C13.046 15.0262 11.943 14.3542 11.799 12.8652C11.367 14.5212 10.215 15.0262 8.65401 15.0262C6.56601 15.0262 4.81401 13.4172 4.81401 10.1782C4.81401 6.91416 6.35101 4.89816 9.11101 4.89816C10.575 4.89816 11.487 5.47416 11.893 6.38616L12.59 5.11416H14.606V12.1712H14.608ZM11.657 9.00316C11.657 7.68416 10.672 7.13116 9.85601 7.13116C8.96801 7.13116 7.98501 7.85016 7.98501 9.96316C7.98501 11.6432 8.72901 12.5792 9.85601 12.5792C10.648 12.5792 11.657 12.0752 11.657 10.6832V9.00316Z" fill="#C4C4C4"/>
</svg>
