<svg width="50" height="64" viewBox="0 0 50 64" fill="none" xmlns="http://www.w3.org/2000/svg">
<g clip-path="url(#clip0_2073_214)">
<path d="M47.8069 10.0512C47.8069 11.3964 47.6382 12.6401 47.4306 13.6934C47.0023 15.7874 46.3665 17.1454 46.3665 17.1454C46.4443 16.7646 46.4962 16.2062 46.5352 15.5971C46.613 14.1122 46.5741 12.3482 46.5741 12.1959C44.8741 14.6453 41.4093 18.3256 34.7911 21.1049C23.9424 25.6482 26.2133 43.022 26.2133 45.4713C26.2133 47.9207 26.3301 53.4031 28.2377 55.0276L24.9027 64L21.5676 55.0276C23.4752 53.3904 23.592 47.9207 23.592 45.4713C23.592 43.022 25.863 25.6482 15.0143 21.1049C4.16559 16.5616 1.77784 9.56891 1.77784 9.56891C1.89463 13.1858 1.77784 15.394 10.3556 24.138C18.9333 32.882 19.5302 48.5045 19.5302 48.5045C19.5302 48.5045 13.2105 42.0956 9.99221 39.6462C6.7999 37.2223 4.07475 30.6611 4.03582 30.5596C4.1007 30.6357 9.17467 36.6258 10.4724 37.438C11.783 38.2502 16.5455 41.6387 16.5455 41.6387C16.5455 41.6387 16.9089 35.344 6.06021 24.1507C-4.78848 12.9447 2.245 0 2.245 0C5.08694 22.4882 24.6691 21.5745 24.8897 21.5618C25.0843 21.5745 42.0711 22.3613 46.7168 4.34027V4.32758C47.5344 6.29467 47.8069 8.26175 47.8069 10.0512Z" fill="black"/>
<path d="M22.8653 44.1768C22.7745 35.3186 21.9699 25.2928 14.2876 21.7901C5.59306 17.8306 3.80225 14.4421 3.80225 14.4421C3.80225 14.4421 4.81444 17.2976 8.21439 19.9246C8.21439 19.9246 14.9624 24.4045 18.3493 35.7755L19.9455 37.4507C19.9455 37.4507 19.3875 34.3287 19.0371 33.7069C19.0371 33.7069 20.3608 34.0622 20.8798 34.7348C20.8798 34.7348 22.3203 42.5397 21.2432 50.8776L18.9463 49.177L21.2692 53.365C21.2562 53.3904 22.9432 52.5147 22.8653 44.1768ZM18.1028 30.7118C17.3112 28.3133 14.7158 24.5441 14.6769 24.4806C17.986 26.5238 19.9974 31.9428 19.9974 31.9428L18.1028 30.7118Z" fill="black"/>
<path d="M35.349 21.8028C27.6537 25.3055 26.8492 35.3313 26.7713 44.1895C26.6934 52.5274 28.3804 53.3904 28.3804 53.3904L30.7033 49.2024L28.3934 50.8903C27.3163 42.5397 28.7568 34.7475 28.7568 34.7475C29.2758 34.0749 30.5995 33.7196 30.5995 33.7196C30.2621 34.3414 29.6911 37.4634 29.6911 37.4634L31.2873 35.7882C34.6742 24.4172 41.4222 19.9373 41.4222 19.9373C44.8222 17.323 45.8344 14.4548 45.8344 14.4548C45.8344 14.4548 44.0436 17.8433 35.349 21.8028ZM31.5208 30.7118L29.6262 31.9428C29.6262 31.9428 31.6376 26.5238 34.9467 24.4806C34.9078 24.5441 32.3124 28.3133 31.5208 30.7118Z" fill="black"/>
<path d="M43.0314 20.5339C43.0314 20.5339 40.449 25.3818 40.8383 32.5775C40.8383 32.5775 52.4137 18.7698 47.6123 0.152344C47.6123 0.152344 56.709 18.2114 39.3979 40.2174C39.3979 40.2174 38.6323 35.1284 39.2292 29.519C39.2292 29.519 35.3361 31.9049 30.1064 48.3015C31.7934 27.2854 43.0314 20.5339 43.0314 20.5339Z" fill="black"/>
</g>
<defs>
<clipPath id="clip0_2073_214">
<rect width="50" height="64" fill="white"/>
</clipPath>
</defs>
</svg>
