<svg xmlns="http://www.w3.org/2000/svg" width="31" height="18.9999" viewBox="0 0 31 18.9999"><title>Me</title><g id="acec0e9a-e5e9-4a92-870d-7e698965f678" data-name="Layer 2"><g id="fc8ac0e5-f044-4882-b83f-90169ac7f2e4" data-name="Layer 1"><path d="M29.5,3H1.5A1.5044,1.5044,0,0,1,0,1.5H0A1.5044,1.5044,0,0,1,1.5,0h28A1.5044,1.5044,0,0,1,31,1.5h0A1.5044,1.5044,0,0,1,29.5,3ZM31,9.5h0A1.5044,1.5044,0,0,0,29.5,8H1.5A1.5044,1.5044,0,0,0,0,9.5H0A1.5044,1.5044,0,0,0,1.5,11h28A1.5044,1.5044,0,0,0,31,9.5Zm0,8h0A1.5044,1.5044,0,0,0,29.5,16H1.5A1.5044,1.5044,0,0,0,0,17.5H0A1.5044,1.5044,0,0,0,1.5,19h28A1.5044,1.5044,0,0,0,31,17.5Z"></path></g></g></svg>