<svg width="31" height="31" viewBox="0 0 31 31" fill="none" xmlns="http://www.w3.org/2000/svg">
<path d="M15.1813 30.3626C23.5657 30.3626 30.3626 23.5657 30.3626 15.1813C30.3626 6.7969 23.5657 0 15.1813 0C6.7969 0 0 6.7969 0 15.1813C0 23.5657 6.7969 30.3626 15.1813 30.3626Z" fill="white"/>
<path fill-rule="evenodd" clip-rule="evenodd" d="M6.73808 11.0414C8.79988 9.3324 11.7851 7.5 15.1813 7.5C18.5775 7.5 21.5627 9.3324 23.6245 11.0414C24.6696 11.9077 25.5129 12.7717 26.0953 13.4191C26.387 13.7434 26.6148 14.0151 26.7713 14.2078C26.8496 14.3042 26.9101 14.381 26.9519 14.4348C26.9729 14.4618 26.9891 14.483 27.0006 14.4981L27.0143 14.5161L27.0184 14.5216L27.0198 14.5234C27.02 14.5237 27.0207 14.5247 26.2192 15.1227C27.0207 15.7207 27.0205 15.721 27.0203 15.7213L27.0184 15.7238L27.0143 15.7293L27.0006 15.7473C26.9891 15.7624 26.9729 15.7836 26.9519 15.8106C26.9101 15.8644 26.8496 15.9412 26.7713 16.0376C26.6148 16.2303 26.387 16.502 26.0953 16.8263C25.5129 17.4737 24.6696 18.3377 23.6245 19.204C21.5627 20.913 18.5775 22.7454 15.1813 22.7454C11.7851 22.7454 8.79988 20.913 6.73808 19.204C5.69298 18.3377 4.84968 17.4737 4.26728 16.8263C3.97558 16.502 3.74778 16.2303 3.59128 16.0376C3.51298 15.9412 3.45248 15.8644 3.41068 15.8106C3.38978 15.7836 3.37348 15.7624 3.36198 15.7473L3.34828 15.7293L3.34418 15.7238L3.34278 15.722C3.34258 15.7217 3.34188 15.7207 4.14338 15.1227C3.34188 14.5247 3.34208 14.5244 3.34228 14.5241L3.34418 14.5216L3.34828 14.5161L3.36198 14.4981C3.37348 14.483 3.38978 14.4618 3.41068 14.4348C3.45248 14.381 3.51298 14.3042 3.59128 14.2078C3.74778 14.0151 3.97558 13.7434 4.26728 13.4191C4.84968 12.7717 5.69298 11.9077 6.73808 11.0414ZM4.14338 15.1227L3.34228 14.5241C3.07758 14.8789 3.07718 15.366 3.34188 15.7207L4.14338 15.1227ZM5.43268 15.1227C5.52718 15.2329 5.63458 15.3557 5.75418 15.4887C6.28888 16.0831 7.06208 16.8748 8.01438 17.6642C9.94748 19.2665 12.4813 20.7454 15.1813 20.7454C17.8813 20.7454 20.4151 19.2665 22.3482 17.6642C23.3005 16.8748 24.0737 16.0831 24.6084 15.4887C24.728 15.3557 24.8354 15.2329 24.9299 15.1227C24.8354 15.0124 24.728 14.8897 24.6084 14.7567C24.0737 14.1623 23.3005 13.3706 22.3482 12.5812C20.4151 10.9789 17.8813 9.5 15.1813 9.5C12.4813 9.5 9.94748 10.9789 8.01438 12.5812C7.06208 13.3706 6.28888 14.1623 5.75418 14.7567C5.63458 14.8897 5.52718 15.0124 5.43268 15.1227ZM26.2192 15.1227L27.0203 15.7213C27.285 15.3665 27.2854 14.8794 27.0207 14.5247L26.2192 15.1227ZM25.4182 15.7214C25.4183 15.7215 25.4183 15.7215 25.4182 15.7214V15.7214Z" fill="#333333"/>
<path fill-rule="evenodd" clip-rule="evenodd" d="M12.5227 12.4645C13.2277 11.7594 14.184 11.3633 15.1811 11.3633C16.1781 11.3633 17.1344 11.7594 17.8394 12.4645C18.5444 13.1695 18.9405 14.1257 18.9405 15.1228C18.9405 16.1199 18.5444 17.0761 17.8394 17.7812C17.1344 18.4862 16.1781 18.8823 15.1811 18.8823C14.184 18.8823 13.2277 18.4862 12.5227 17.7812C11.8177 17.0761 11.4216 16.1199 11.4216 15.1228C11.4216 14.1257 11.8177 13.1695 12.5227 12.4645ZM15.1811 13.3633C14.7144 13.3633 14.2669 13.5487 13.9369 13.8787C13.607 14.2086 13.4216 14.6562 13.4216 15.1228C13.4216 15.5895 13.607 16.037 13.9369 16.3669C14.2669 16.6969 14.7144 16.8823 15.1811 16.8823C15.6477 16.8823 16.0952 16.6969 16.4252 16.3669C16.7552 16.037 16.9405 15.5895 16.9405 15.1228C16.9405 14.6562 16.7552 14.2086 16.4252 13.8787C16.0952 13.5487 15.6477 13.3633 15.1811 13.3633Z" fill="#333333"/>
</svg>
