<svg width="30" height="30" viewBox="0 0 30 30" fill="none" xmlns="http://www.w3.org/2000/svg">
<path d="M15 0C6.71572 0 0 6.71572 0 15C0 23.2843 6.71572 30 15 30C23.2843 30 30 23.2843 30 15C30 6.71572 23.2843 0 15 0Z" fill="black"/>
<path d="M13 6C11.6155 6 10.2622 6.41054 9.11101 7.17971C7.95987 7.94888 7.06266 9.04213 6.53285 10.3212C6.00303 11.6003 5.86441 13.0078 6.13451 14.3656C6.4046 15.7235 7.07129 16.9708 8.05026 17.9497C9.02922 18.9287 10.2765 19.5954 11.6344 19.8655C12.9922 20.1356 14.3997 19.997 15.6788 19.4672C16.9579 18.9373 18.0511 18.0401 18.8203 16.889C19.5895 15.7378 20 14.3845 20 13C20 11.1435 19.2625 9.36301 17.9497 8.05025C16.637 6.7375 14.8565 6 13 6Z" fill="white"/>
<path d="M23.8401 23.0655L19.5 18.5L18.7181 19.2726L23.0582 23.8381C23.1092 23.8892 23.1697 23.9298 23.2365 23.9576C23.3032 23.9853 23.3748 23.9998 23.4472 24C23.5195 24.0003 23.5912 23.9864 23.6582 23.959C23.7251 23.9317 23.786 23.8916 23.8373 23.8408C23.8887 23.7901 23.9294 23.7298 23.9574 23.6634C23.9853 23.597 23.9998 23.5257 24.0001 23.4538C24.0003 23.3818 23.9863 23.3104 23.9589 23.2438C23.9314 23.1772 23.891 23.1166 23.8401 23.0655Z" fill="white"/>
</svg>
