<svg xmlns="http://www.w3.org/2000/svg" width="36" height="36" viewBox="0 0 36 36" fill="none"><path fill-rule="evenodd" clip-rule="evenodd" d="M18 33C26.2845 33 33 26.2845 33 18C33 9.7155 26.2845 3 18 3C9.7155 3 3 9.7155 3 18C3 26.2845 9.7155 33 18 33Z" fill="black"></path><path fill-rule="evenodd" clip-rule="evenodd" d="M10.2675 24.462C16.1145 23.8147 19.923 23.8732 25.7415 24.4755C26.1752 24.5207 26.5863 24.6915 26.9245 24.9668C27.2627 25.2421 27.5133 25.6101 27.6455 26.0256C27.7778 26.4412 27.7861 26.8862 27.6693 27.3064C27.5525 27.7266 27.3157 28.1035 26.988 28.3912C23.5568 31.3822 20.6993 33.0112 17.7953 33C14.883 32.9895 12.1515 31.3327 8.97075 28.3815C8.74302 28.1693 8.56147 27.9125 8.43746 27.6271C8.31345 27.3416 8.24963 27.0337 8.25 26.7225C8.24891 26.1633 8.45416 25.6234 8.82643 25.2061C9.1987 24.7889 9.71182 24.5244 10.2675 24.462Z" fill="white"></path><path d="M24 15C24 16.5913 23.3679 18.1174 22.2426 19.2426C21.1174 20.3679 19.5913 21 18 21C16.4087 21 14.8826 20.3679 13.7574 19.2426C12.6321 18.1174 12 16.5913 12 15C12 13.4087 12.6321 11.8826 13.7574 10.7574C14.8826 9.63214 16.4087 9 18 9C19.5913 9 21.1174 9.63214 22.2426 10.7574C23.3679 11.8826 24 13.4087 24 15Z" fill="white"></path><path d="M32 18C32 25.7322 25.7322 32 18 32C10.2678 32 4 25.7322 4 18C4 10.2678 10.2678 4 18 4C25.7322 4 32 10.2678 32 18Z" stroke="black" stroke-width="2"></path></svg>