{
    "asset" : {
        "generator" : "Khronos glTF Blender I/O v1.8.19",
        "version" : "2.0"
    },
    "scene" : 0,
    "scenes" : [
        {
            "name" : "Scene",
            "nodes" : [
                0
            ]
        }
    ],
    "nodes" : [
        {
            "mesh" : 0,
            "name" : "AR-9 80% Standard OBJ File",
            "rotation" : [
                1,
                0,
                0,
                -4.371138828673793e-08
            ]
        }
    ],
    "materials" : [
        {
            "doubleSided" : true,
            "name" : "Steel_-_Satin.001",
            "pbrMetallicRoughness" : {
                "baseColorFactor" : [
                    0,
                    0,
                    0,
                    1
                ],
                "metallicFactor" : 0,
                "roughnessFactor" : 0.5
            }
        }
    ],
    "meshes" : [
        {
            "name" : "AR-9 80% Standard OBJ File",
            "primitives" : [
                {
                    "attributes" : {
                        "POSITION" : 0,
                        "NORMAL" : 1,
                        "TEXCOORD_0" : 2
                    },
                    "indices" : 3,
                    "material" : 0
                }
            ]
        }
    ],
    "accessors" : [
        {
            "bufferView" : 0,
            "componentType" : 5126,
            "count" : 15076,
            "max" : [
                5.427321910858154,
                0.3838599920272827,
                0.7537940144538879
            ],
            "min" : [
                -2.299999952316284,
                -3.9124999046325684,
                -0.7537940144538879
            ],
            "type" : "VEC3"
        },
        {
            "bufferView" : 1,
            "componentType" : 5126,
            "count" : 15076,
            "type" : "VEC3"
        },
        {
            "bufferView" : 2,
            "componentType" : 5126,
            "count" : 15076,
            "type" : "VEC2"
        },
        {
            "bufferView" : 3,
            "componentType" : 5123,
            "count" : 51774,
            "type" : "SCALAR"
        }
    ],
    "bufferViews" : [
        {
            "buffer" : 0,
            "byteLength" : 180912,
            "byteOffset" : 0
        },
        {
            "buffer" : 0,
            "byteLength" : 180912,
            "byteOffset" : 180912
        },
        {
            "buffer" : 0,
            "byteLength" : 120608,
            "byteOffset" : 361824
        },
        {
            "buffer" : 0,
            "byteLength" : 103548,
            "byteOffset" : 482432
        }
    ],
    "buffers" : [
        {
            "byteLength" : 585980,
            "uri" : "data:application/octet-stream;base64,"
        }
    ]
}
